<svg t="1604461600763" class="icon" viewBox="0 0 1024 1024" version="1.1" xmlns="http://www.w3.org/2000/svg" p-id="9765" width="200" height="200"><path d="M695.636523 767.952003h199.539528a28.030248 28.030248 0 0 0 26.366353-27.19830001 28.030248 28.030248 0 0 0-26.366353-27.19829999H695.636523a28.030248 28.030248 0 0 0-26.366352 27.19829999c0 14.07912 11.455284 25.854384 26.366352 27.19830001z m0-155.95825301h199.539528a28.030248 28.030248 0 0 0 26.366353-27.134304 28.030248 28.030248 0 0 0-26.366353-27.1983H695.636523a28.030248 28.030248 0 0 0-25.91838 27.134304c0 13.887132 11.1993 25.5984 25.91838 27.134304v0.063996z m0-156.342228h199.539528a28.030248 28.030248 0 0 0 25.91838101-27.134304c0-13.887132-11.13530399-25.5984-25.91838101-27.134304H695.636523a28.030248 28.030248 0 0 0-25.91838 27.134304c0 13.887132 11.1993 25.5984 25.91838 27.134304zM407.65452199 442.91631801H185.97237699a29.886132 29.886132 0 0 0-27.90225599 12.60721198 25.854384 25.854384 0 0 0 0 29.054184 29.886132 29.886132 0 0 0 27.90225601 12.671208h221.74614098a28.030248 28.030248 0 0 0 25.91838-27.1983c0-13.887132-11.13530399-25.5984-25.91838-27.134304z m2e-8-186.93231701H185.97237699c-16.062996 0-29.11818 12.223236-29.11817999 27.326292 0 15.03906 13.055184 27.262296 29.11818001 27.262296h221.74614098c16.126992 0 29.18217599-12.15924 29.182176-27.262296S423.84550999 255.984001 407.65452199 255.984001z" fill="#515151" p-id="9766"></path><path d="M602.39435001 221.362165v-110.71308102A110.71308 110.71308 0 0 0 491.42528599 0H110.969064C49.724892 0 0 49.468908 0 110.71308v885.064684c0 15.167052 12.223236 27.51828 27.390288 27.71026801H574.68408201a27.710268 27.710268 0 0 0 27.39028798-27.71026801V276.270733h309.10068201c31.102056 0 56.508468 24.702456 57.340416 55.67652v637.01618699H585.30741799a27.710268 27.710268 0 0 0-2.55984 54.972564h413.41416201c15.35904 0 27.774264-12.351228 27.77426402-27.64627199V331.947253c0-29.566152-11.903256-57.85238399-32.89394402-78.587088a111.09705599 111.09705599 0 0 0-79.16305201-31.998H602.39435001zM221.874133 722.514843c0-8.063496 6.3996-14.527092 14.463096-14.783076H364.13724101a14.463096 14.463096 0 0 1 14.46309599 14.71908v246.128617H221.874133v-246.064621z m142.3911-69.75564h-126.07212001a69.75564 69.75564 0 0 0-69.49965599 69.75564v246.384601H55.164552V110.585088a56.95644001 56.95644001 0 0 1 55.804512-55.292544h379.81626198a56.95644001 56.95644001 0 0 1 56.50846803 55.35653998v858.31435603H434.14886599v-246.38460101a69.75564 69.75564 0 0 0-69.88363299-69.75564z" fill="#515151" p-id="9767"></path></svg>
