<svg t="1604461838781" class="icon" viewBox="0 0 1024 1024" version="1.1" xmlns="http://www.w3.org/2000/svg" p-id="10512" width="200" height="200"><path d="M938.88 704h-64V544a32 32 0 0 0-32-32h-288V320h64c35.2 0 64-28.8 64-64V64c0-35.2-28.8-64-64-64h-192c-35.2 0-64 28.8-64 64v192c0 35.2 28.8 64 64 64h64v192h-288a32 32 0 0 0-32 32v160h-64c-35.2 0-64 28.8-64 64v192c0 35.2 28.8 64 64 64h192c35.2 0 64-28.8 64-64V768c0-35.2-28.8-64-64-64h-64V576h576v128h-64c-35.2 0-64 28.8-64 64v192c0 35.2 28.8 64 64 64h192c35.2 0 64-28.8 64-64V768c0-35.2-28.8-64-64-64z m-512-640h192v192h-192V64z m-128 896h-192V768h192v192z m640 0h-192V768h192v192z" p-id="10513"></path></svg>
