<svg t="1604461249603" class="icon" viewBox="0 0 1280 1024" version="1.1" xmlns="http://www.w3.org/2000/svg" p-id="5108" width="200" height="200"><path d="M1146.88 11.349333H127.402667C55.210667 11.349333 0 65.706667 0 136.533333v750.933334c0 70.912 55.210667 125.184 127.402667 125.184H1146.88c72.192 0 127.402667-54.272 127.402667-125.184V136.533333c0-70.912-55.210667-125.184-127.402667-125.184zM84.992 136.533333c0-25.002667 16.981333-41.728 42.410667-41.728H1146.88c25.514667 0 42.496 16.725333 42.496 41.728v596.565334l-199.68-196.096a123.306667 123.306667 0 0 0-89.173333-37.546667c-33.962667 0-68.010667 12.544-89.173334 33.365333l-271.872 229.546667-186.88-146.090667c-46.762667-45.909333-131.754667-45.909333-178.432 0L84.992 704V136.533333z m1104.384 750.933334c0 25.002667-17.066667 41.728-42.496 41.728H127.402667c-25.429333 0-42.410667-16.725333-42.410667-41.728v-66.730667l148.650667-141.824a41.557333 41.557333 0 0 1 59.477333 0s4.266667 0 4.266667 4.096l216.576 171.093333a45.226667 45.226667 0 0 0 55.210666 0l301.568-254.464 4.266667-4.266666a41.557333 41.557333 0 0 1 59.477333 0l259.157334 254.549333v37.546667h-4.266667z" p-id="5109"></path><path d="M409.6 466.517333c77.397333 0 136.533333-59.221333 136.533333-136.533333 0-77.397333-59.136-136.533333-136.533333-136.533333-77.397333 0-136.533333 59.136-136.533333 136.533333 0 77.312 59.136 136.533333 136.533333 136.533333z m0-182.101333c27.306667 0 45.482667 18.261333 45.482667 45.568 0 27.306667-18.176 45.482667-45.482667 45.482667-27.306667 0-45.482667-18.176-45.482667-45.482667 0-27.306667 18.176-45.568 45.482667-45.568z" p-id="5110"></path></svg>
