<svg t="1604461958075" class="icon" viewBox="0 0 1211 1024" version="1.1" xmlns="http://www.w3.org/2000/svg" p-id="12486" width="200" height="200"><path d="M443.177761 592.898822a296.449411 296.449411 0 1 1 296.449412-296.449411 296.449411 296.449411 0 0 1-296.449412 296.449411z m0-77.332398a219.117013 219.117013 0 1 0-219.117013-219.117013 219.117013 219.117013 0 0 0 219.117013 219.117013z m378.143624 54.137811a43.104986 43.104986 0 1 1-23.091957-82.977099 197.718467 197.718467 0 0 0 33.868203-368.34237 42.95104 42.95104 0 1 1 37.614232-76.97319 283.517915 283.517915 0 0 1-48.647056 528.549236z" p-id="12487"></path><path d="M936.575907 882.010123a141.989877 141.989877 0 0 1-141.835931 141.938562H136.978413A136.960962 136.960962 0 0 1 0.530605 875.493059c19.345928-229.995891 205.877625-359.926635 467.996994-359.926635 259.810173 0 444.545828 125.876823 467.329892 352.280632 0.410524 4.721022 0.667101 9.442045 0.667101 14.163067z m-467.996993-289.111301c-225.788023 0-375.475219 104.32433-390.921173 289.111301a59.628564 59.628564 0 0 0 59.371987 64.606164h657.710248a64.606164 64.606164 0 0 0 64.195641-71.071912c-18.216988-181.656728-166.518667-282.696868-390.356703-282.696868z" p-id="12488"></path><path d="M1211.062302 848.603758a42.95104 42.95104 0 1 1-85.90208 0 58.653571 58.653571 0 0 0-0.359208-5.952593c-16.215685-161.387121-137.32017-256.577299-327.803157-271.510098a42.95104 42.95104 0 1 1 6.77364-85.645502c228.559058 17.960411 385.686996 141.425407 406.521073 348.585918a135.780707 135.780707 0 0 1 0.769732 14.522275z" p-id="12489"></path></svg>
