<svg t="1604461475833" class="icon" viewBox="0 0 1024 1024" version="1.1" xmlns="http://www.w3.org/2000/svg" p-id="8155" width="200" height="200"><path d="M631.8 67.7c0-17 4-30.4 12.1-40.3 8-9.9 22.5-14.9 43.3-14.9 18.9 0 33.1 5.2 42.6 15.7 9.5 10.3 14.2 23.6 14.2 39.7V955c0 16.1-4.4 29.3-13.4 39.7-9 10.3-22.9 16.1-41.8 17-18.9 0-33.1-5.5-42.6-16.3S632 971 632 955.1V546.7H113.3v408.1c0 16.1-4.4 29.3-13.4 39.7-9 10.3-22.9 16.1-41.8 17-18.9 0-33.1-5.5-42.6-16.3C6.1 984.6 1.3 971 1.3 955V67.7C1.3 51.6 6 38.4 15.5 28 25 17.6 39.2 12.3 58.1 12.3S90.9 17.5 99.9 28c9 10.3 13.4 23.6 13.4 39.7v382.7H632V67.7h-0.2zM1022.7 716.8c0-3.7-0.6-7.5-1.8-11.2-2.7-8.3-8-15.1-14.6-19.7-0.1-0.1-0.3-0.1-0.4-0.3-0.3-0.1-0.4-0.3-0.7-0.4-0.3-0.1-0.6-0.4-1-0.6-0.1 0-0.1-0.1-0.3-0.1-5-3-10.9-4.7-17.1-5H985.1c-3.7 0-7.5 0.6-11.2 1.8l-86.7 26.9c-19.8 6.2-30.9 27.5-24.7 47.3 6.2 19.8 27.5 30.9 47.3 24.7l37.7-11.8v205.8c0 20.7 17 37.7 37.7 37.7s37.7-17 37.7-37.7l-0.2-257.4z" p-id="8156"></path></svg>
