<svg width="68" height="67" viewBox="0 0 68 67" fill="none" xmlns="http://www.w3.org/2000/svg">
<path d="M2.44338 36C1.55021 34.453 1.55021 32.547 2.44338 31L16.3066 6.98815C17.1998 5.44115 18.8504 4.48815 20.6368 4.48815H48.3632C50.1496 4.48815 51.8002 5.44115 52.6934 6.98815L66.5566 31C67.4498 32.547 67.4498 34.453 66.5566 36L52.6934 60.0119C51.8002 61.5589 50.1496 62.5119 48.3632 62.5119H20.6368C18.8504 62.5119 17.1998 61.5589 16.3066 60.0119L2.44338 36Z" fill="#D3E7FF"/>
<path d="M2.52591 30.625L15.8892 7.47917C16.559 6.31892 17.797 5.60417 19.1368 5.60417H45.8632C47.203 5.60417 48.441 6.31892 49.1108 7.47917L62.4741 30.625C63.144 31.7853 63.144 33.2147 62.4741 34.375L49.1108 57.5208C48.441 58.6811 47.203 59.3958 45.8633 59.3958H19.1368C17.797 59.3958 16.559 58.6811 15.8892 57.5208L2.52591 34.375C1.85603 33.2147 1.85603 31.7853 2.52591 30.625Z" fill="#D3E7FF" stroke="#5E95FF" stroke-width="2.5"/>
<path d="M36.5 47C31.2801 47 26.5538 47 21.0004 47C20.4482 47 20 46.5523 20 46V21C20 20.4477 20.4477 20 21 20H45C45.5523 20 46 20.4513 46 21.0035C46 27.8288 46 30.2007 46 36.1853" stroke="#5E95FF" stroke-width="2.5"/>
<rect x="25" y="26" width="16" height="2.5" rx="0.5" fill="#5E95FF"/>
<rect x="25" y="33" width="10" height="2.5" rx="0.5" fill="#5E95FF"/>
<rect x="39" y="48" width="14" height="2.5" transform="rotate(-45 39 48)" fill="#5E95FF"/>
<rect x="40.7678" y="38" width="14" height="2.5" transform="rotate(45 40.7678 38)" fill="#5E95FF"/>
</svg>
