<svg width="68" height="67" viewBox="0 0 68 67" fill="none" xmlns="http://www.w3.org/2000/svg">
<path d="M2.44338 36C1.55021 34.453 1.55021 32.547 2.44338 31L16.3066 6.98815C17.1998 5.44115 18.8504 4.48815 20.6368 4.48815H48.3632C50.1496 4.48815 51.8002 5.44115 52.6934 6.98815L66.5566 31C67.4498 32.547 67.4498 34.453 66.5566 36L52.6934 60.0119C51.8002 61.5589 50.1496 62.5119 48.3632 62.5119H20.6368C18.8504 62.5119 17.1998 61.5589 16.3066 60.0119L2.44338 36Z" fill="#D3E7FF"/>
<path d="M2.52591 30.625L15.8892 7.47917C16.559 6.31892 17.797 5.60417 19.1368 5.60417H45.8632C47.203 5.60417 48.441 6.31892 49.1108 7.47917L62.4741 30.625C63.144 31.7853 63.144 33.2147 62.4741 34.375L49.1108 57.5208C48.441 58.6811 47.203 59.3958 45.8633 59.3958H19.1368C17.797 59.3958 16.559 58.6811 15.8892 57.5208L2.52591 34.375C1.85603 33.2147 1.85603 31.7853 2.52591 30.625Z" fill="#D3E7FF" stroke="#5E95FF" stroke-width="2.5"/>
<path d="M21.8382 30.1194L19.4519 31.3126L19.4518 31.3127C19.0129 31.5329 18.6774 31.8108 18.4519 32.149C18.2258 32.4878 18.114 32.8814 18.114 33.326C18.114 33.7705 18.2258 34.1641 18.4519 34.5029C18.6774 34.8411 19.0129 35.119 19.4518 35.3393L19.4519 35.3393L21.838 36.5324L19.452 37.7224L19.4518 37.7225C19.0129 37.9427 18.6774 38.2207 18.4519 38.5588C18.2258 38.8976 18.114 39.2912 18.114 39.7358C18.114 40.17 18.1686 40.5616 18.3393 40.9021C18.5112 41.245 18.796 41.5267 19.2391 41.7491L19.2398 41.7495L31.4147 47.7338C31.4147 47.7338 31.4148 47.7339 31.4149 47.7339C31.6355 47.8434 31.8053 47.9004 31.9777 47.929C32.1462 47.9569 32.3137 47.9569 32.5234 47.9569H32.529H32.5334C32.7446 47.9569 32.9647 47.9569 33.159 47.9293C33.3471 47.9026 33.5283 47.8481 33.6572 47.727L45.3927 41.9671C46.4981 41.5214 46.9473 40.6292 46.9473 39.739C46.9473 39.1908 46.8374 38.7418 46.5818 38.3733C46.3269 38.0056 45.9348 37.7292 45.3914 37.5105L43.2439 36.5325L45.3914 35.5545C46.4978 35.1091 46.9473 34.2165 46.9473 33.326C46.9473 32.7777 46.8374 32.3287 46.5818 31.9602C46.3269 31.5925 45.9348 31.3161 45.3914 31.0974L43.2347 30.1152L45.5941 28.9355C45.6682 28.9284 45.7448 28.8924 45.8147 28.8481C45.896 28.7965 45.9819 28.7248 46.0655 28.6413C46.2318 28.4755 46.398 28.2547 46.5097 28.0308C47.1771 26.9132 46.7322 25.5673 45.6087 25.1135L33.4336 19.1338L33.434 19.133L33.421 19.1287C32.7592 18.9092 32.0958 18.9092 31.4341 19.1287L31.4338 19.1278L31.4215 19.1338L19.2549 25.1061C19.1807 25.1131 19.1039 25.1491 19.0339 25.1936C18.9526 25.2452 18.8667 25.3169 18.7831 25.4003C18.6159 25.5671 18.4488 25.7893 18.3371 26.0144L18.3368 26.0143L18.3338 26.0219C17.8923 27.1324 18.3284 28.4739 19.4555 28.9281L21.8382 30.1194ZM20.5807 39.7422L24.4125 37.9267L31.4165 41.5359L31.4179 41.5366C31.6386 41.6462 31.8085 41.7032 31.9809 41.7318C32.1494 41.7597 32.3169 41.7597 32.5266 41.7597H32.5323H32.5366C32.7477 41.7597 32.9679 41.7597 33.1622 41.7322C33.3502 41.7055 33.5313 41.6509 33.6602 41.53L40.6506 38.1387L44.4805 39.9534L32.533 45.8212L20.5807 39.7422ZM33.6337 34.9162L33.6339 34.917L33.6458 34.9113L40.6538 31.5161L44.4838 33.3292L32.5322 39.4109L20.5807 33.3324L24.4145 31.5158L31.6357 34.9118L31.6354 34.9124L31.6468 34.9162C32.3085 35.1357 32.9719 35.1357 33.6337 34.9162ZM32.5323 33.0011L20.5774 26.9177L32.5323 21.0462L44.4871 26.9177L32.5323 33.0011Z" fill="#5E95FF" stroke="#5E95FF" stroke-width="0.2"/>
</svg>
