<svg width="68" height="67" viewBox="0 0 68 67" fill="none" xmlns="http://www.w3.org/2000/svg">
<path d="M2.44338 36C1.55021 34.453 1.55021 32.547 2.44338 31L16.3066 6.98815C17.1998 5.44115 18.8504 4.48815 20.6368 4.48815H48.3632C50.1496 4.48815 51.8002 5.44115 52.6934 6.98815L66.5566 31C67.4498 32.547 67.4498 34.453 66.5566 36L52.6934 60.0119C51.8002 61.5589 50.1496 62.5119 48.3632 62.5119H20.6368C18.8504 62.5119 17.1998 61.5589 16.3066 60.0119L2.44338 36Z" fill="#D3E7FF"/>
<path d="M2.52591 30.625L15.8892 7.47917C16.559 6.31892 17.797 5.60417 19.1368 5.60417H45.8632C47.203 5.60417 48.441 6.31892 49.1108 7.47917L62.4741 30.625C63.144 31.7853 63.144 33.2147 62.4741 34.375L49.1108 57.5208C48.441 58.6811 47.203 59.3958 45.8633 59.3958H19.1368C17.797 59.3958 16.559 58.6811 15.8892 57.5208L2.52591 34.375C1.85603 33.2147 1.85603 31.7853 2.52591 30.625Z" fill="#D3E7FF" stroke="#5E95FF" stroke-width="2.5"/>
<path d="M25.5667 40.3001L25.5666 40.3L25.5619 40.3047C25.1425 40.7222 24.85 41.2235 24.85 41.8732C24.85 42.5061 25.0628 43.0778 25.4951 43.5081C25.9258 43.9368 26.4989 44.15 27.07 44.15C27.717 44.15 28.2877 43.8635 28.7116 43.4417L28.7117 43.4418L28.7161 43.4369L33.6553 38.0679C34.1506 38.5111 34.7708 38.6324 35.3822 38.4971L35.3823 38.4972L35.3887 38.4955L38.8577 37.5659C39.5126 37.4197 40.0226 36.9125 40.1696 36.2599L41.1036 32.8069L41.1037 32.8069L41.1052 32.8004C41.2497 32.153 41.035 31.4357 40.5972 30.9998L40.063 30.4681C39.7377 30.1443 39.243 30.144 38.9174 30.4673L36.7147 32.5933L36.7147 32.5933L36.713 32.595C36.6808 32.6271 36.6223 32.651 36.5518 32.651C36.4812 32.651 36.4227 32.6271 36.3905 32.595C36.3551 32.5597 36.3353 32.539 36.3213 32.5158C36.3101 32.4971 36.3011 32.474 36.3011 32.4354C36.3011 32.3969 36.3101 32.3737 36.3213 32.355C36.3353 32.3318 36.3551 32.3111 36.3905 32.2759L38.594 30.0826C38.92 29.7581 38.92 29.264 38.594 28.9395L38.0598 28.4078C37.5522 27.9025 36.8974 27.7597 36.2523 27.9024L36.2522 27.9023L36.2458 27.904L32.7768 28.8336C32.122 28.9798 31.6119 29.487 31.4649 30.1397L30.5309 33.5926L30.5308 33.5926L30.5293 33.5991C30.3897 34.2244 30.5853 34.9151 30.9934 35.3542L25.5667 40.3001ZM33.0908 30.6136L33.096 30.5944V30.5745C33.096 30.5675 33.0961 30.5562 33.1252 30.5321C33.1571 30.5056 33.2026 30.4815 33.2665 30.4496L36.7051 29.5281H36.7501C36.7507 29.5283 36.7562 29.529 36.7673 29.5325C36.7815 29.537 36.7993 29.5442 36.8188 29.5539C36.8367 29.5629 36.8536 29.5726 36.8684 29.5824L35.244 31.1992C34.5174 31.9225 34.5174 33.0813 35.244 33.8045C35.9703 34.5274 37.1332 34.5274 37.8595 33.8045L39.4963 32.1754C39.5049 32.1829 39.5173 32.2004 39.527 32.2438C39.5383 32.2941 39.5399 32.3529 39.5401 32.4148L38.6109 35.718L38.6053 35.7379V35.7586C38.6053 35.7655 38.6052 35.7768 38.5761 35.801C38.5442 35.8274 38.4987 35.8515 38.4348 35.8835L34.9772 36.81L34.9626 36.8139L34.9491 36.8206C34.9248 36.8327 34.8801 36.8377 34.823 36.8251C34.7965 36.8192 34.7719 36.8105 34.7523 36.801C34.7426 36.7963 34.7349 36.7919 34.7292 36.7881C34.7238 36.7845 34.7214 36.7823 34.7212 36.7821L34.7212 36.7821L34.187 36.2504C34.1113 36.1751 34.0297 36.1127 33.9332 36.07C33.836 36.027 33.7313 36.0074 33.6137 36.0074C33.4962 36.0074 33.3915 36.027 33.2943 36.07C33.1978 36.1127 33.1162 36.1751 33.0405 36.2504L33.0404 36.2503L33.0357 36.2554L27.4936 42.3035L27.4859 42.3119L27.4795 42.3214C27.3816 42.4677 27.236 42.5207 27.07 42.5207C26.8992 42.5207 26.7406 42.4636 26.6416 42.365C26.5427 42.2666 26.4855 42.1091 26.4855 41.9396C26.4855 41.7715 26.5418 41.6151 26.6394 41.5165L32.713 36.0026L32.7131 36.0027L32.718 35.9978C32.7936 35.9225 32.8564 35.8412 32.8994 35.745C32.9426 35.648 32.9625 35.5435 32.9625 35.4263C32.9625 35.256 32.8816 35.0176 32.718 34.8547L32.2011 34.3403C32.1717 34.2812 32.1506 34.2358 32.14 34.1934C32.1294 34.1515 32.1322 34.1238 32.1452 34.0979L32.152 34.0843L32.156 34.0697L33.0908 30.6136Z" fill="#5E95FF" stroke="#5E95FF" stroke-width="0.3"/>
<mask id="path-4-inside-1_100_14" fill="white">
<rect x="20" y="20" width="26" height="28" rx="2"/>
</mask>
<rect x="20" y="20" width="26" height="28" rx="2" stroke="#5E95FF" stroke-width="5" mask="url(#path-4-inside-1_100_14)"/>
<path d="M26 22V22C26 23.1046 26.8954 24 28 24H38C39.1046 24 40 23.1046 40 22V22" stroke="#5E95FF" stroke-width="2.5"/>
</svg>
