<svg width="68" height="67" viewBox="0 0 68 67" fill="none" xmlns="http://www.w3.org/2000/svg">
<path d="M2.44338 36C1.55021 34.453 1.55021 32.547 2.44338 31L16.3066 6.98815C17.1998 5.44115 18.8504 4.48815 20.6368 4.48815H48.3632C50.1496 4.48815 51.8002 5.44115 52.6934 6.98815L66.5566 31C67.4498 32.547 67.4498 34.453 66.5566 36L52.6934 60.0119C51.8002 61.5589 50.1496 62.5119 48.3632 62.5119H20.6368C18.8504 62.5119 17.1998 61.5589 16.3066 60.0119L2.44338 36Z" fill="#D3E7FF"/>
<path d="M2.52591 30.625L15.8892 7.47917C16.559 6.31892 17.797 5.60417 19.1368 5.60417H45.8632C47.203 5.60417 48.441 6.31892 49.1108 7.47917L62.4741 30.625C63.144 31.7853 63.144 33.2147 62.4741 34.375L49.1108 57.5208C48.441 58.6811 47.203 59.3958 45.8633 59.3958H19.1368C17.797 59.3958 16.559 58.6811 15.8892 57.5208L2.52591 34.375C1.85603 33.2147 1.85603 31.7853 2.52591 30.625Z" fill="#D3E7FF" stroke="#5E95FF" stroke-width="2.5"/>
<mask id="path-3-inside-1_100_15" fill="white">
<rect x="19" y="20" width="28" height="28" rx="2"/>
</mask>
<rect x="19" y="20" width="28" height="28" rx="2" stroke="#5E95FF" stroke-width="5" mask="url(#path-3-inside-1_100_15)"/>
<rect x="25" y="19" width="2.5" height="5" rx="1.25" fill="#5E95FF"/>
<rect x="39" y="19" width="2.5" height="5" rx="1.25" fill="#5E95FF"/>
<rect x="19" y="27" width="28" height="2.5" fill="#5E95FF"/>
<rect x="31" y="33" width="12" height="2.5" rx="1" fill="#5E95FF"/>
<rect x="31" y="40" width="12" height="2.5" rx="1" fill="#5E95FF"/>
<rect x="24" y="40" width="5" height="2.5" rx="1" fill="#5E95FF"/>
<path d="M28.1434 33.8176L26.4829 35.7425L25.7329 34.7543C25.5158 34.4683 25.1093 34.4215 24.8386 34.6692C24.5848 34.9014 24.5562 35.2991 24.761 35.569L25.9666 37.1576C26.2039 37.4702 26.6546 37.4887 26.9131 37.189L29.0645 34.695C29.287 34.4372 29.2784 34.0387 29.0413 33.7921C28.7888 33.5294 28.3799 33.5435 28.1434 33.8176Z" fill="#5E95FF" stroke="#5E95FF" stroke-width="0.6" stroke-linejoin="round"/>
</svg>
